<?xml version="1.0"?>
<svg xmlns="http://www.w3.org/2000/svg" height="512px" viewBox="0 0 60 60" width="512px" class=""><g><g id="Page-1" fill="none" fill-rule="evenodd"><g id="097---Listen-To-Podcast" fill="rgb(0,0,0)" fill-rule="nonzero" transform="translate(0 -1)"><path id="Shape" d="m57 28h-1v-1c-.0039153-.7184539-.3928944-1.3796038-1.019-1.732-.3826276-13.5214355-11.4541518-24.28409124-24.981-24.28409124s-24.59837235 10.76265574-24.981 24.28409124c-.62610562.3523962-1.01508469 1.0135461-1.019 1.732v1h-1c-1.65685425 0-3 1.3431458-3 3v12c0 1.6568542 1.34314575 3 3 3h1v1c0 1.1045695.8954305 2 2 2h4c1.6568542 0 3-1.3431458 3-3v-18c-.0056713-1.2503842-.7862914-2.3661251-1.959-2.8.4178238-10.1679705 8.7824485-18.19593389 18.959-18.19593389s18.5411762 8.02796339 18.959 18.19593389c-1.1727086.4338749-1.9533287 1.5496158-1.959 2.8v18c0 1.6568542 1.3431458 3 3 3h4c1.1045695 0 2-.8954305 2-2v-1h1c1.6568542 0 3-1.3431458 3-3v-12c0-1.6568542-1.3431458-3-3-3zm-54 16c-.55228475 0-1-.4477153-1-1v-12c0-.5522847.44771525-1 1-1h1v14zm8 2c0 .5522847-.4477153 1-1 1h-4v-20h4c.5522847 0 1 .4477153 1 1zm19-41c-11.1970655.01855058-20.41176015 8.815815-20.949 20h-2.026c.57266871-12.2723605 10.6892855-21.92791092 22.975-21.92791092s22.4023313 9.65555042 22.975 21.92791092h-2.026c-.5372398-11.184185-9.7519345-19.98144942-20.949-20zm24 42h-4c-.5522847 0-1-.4477153-1-1v-18c0-.5522847.4477153-1 1-1h4zm4-4c0 .5522847-.4477153 1-1 1h-1v-14h1c.5522847 0 1 .4477153 1 1z" data-original="#000000" class="active-path" data-old_color="#000000" fill="#FFFFFF"/><path id="Shape" d="m41 16h-22c-2.209139 0-4 1.790861-4 4v37c0 2.209139 1.790861 4 4 4h22c2.209139 0 4-1.790861 4-4v-37c0-2.209139-1.790861-4-4-4zm-3.618 2-.724 1.447c-.1679935.3398868-.5148658.554451-.894.553h-11.528c-.3791342.001451-.7260065-.2131132-.894-.553l-.724-1.447zm3.618 41h-22c-1.1045695 0-2-.8954305-2-2v-.556c.6053465.3599241 1.2957468.5518554 2 .556h22c.7042532-.0041446 1.3946535-.1960759 2-.556v.556c0 1.1045695-.8954305 2-2 2zm0-4h-22c-1.1045695 0-2-.8954305-2-2v-33c0-1.1045695.8954305-2 2-2h1.382l1.171 2.342c.5055177 1.018598 1.5458642 1.6614957 2.683 1.658h11.528c1.1371358.0034957 2.1774823-.639402 2.683-1.658l1.171-2.342h1.382c1.1045695 0 2 .8954305 2 2v33c0 1.1045695-.8954305 2-2 2z" data-original="#000000" class="active-path" data-old_color="#000000" fill="#FFFFFF"/><path id="Shape" d="m30 36c-1.6568542 0-3 1.3431458-3 3s1.3431458 3 3 3 3-1.3431458 3-3-1.3431458-3-3-3zm0 4c-.5522847 0-1-.4477153-1-1s.4477153-1 1-1 1 .4477153 1 1-.4477153 1-1 1z" data-original="#000000" class="active-path" data-old_color="#000000" fill="#FFFFFF"/><path id="Shape" d="m26.465 34.051c-.3904999-.3903819-1.0235001-.3903819-1.414 0-1.3129091 1.3127752-2.0505051 3.0933608-2.0505051 4.95s.737596 3.6372248 2.0505051 4.95c.3923789.3789722 1.0160848.3735524 1.4018186-.0121814s.3911536-1.0094397.0121814-1.4018186c-1.9519097-1.9524993-1.9519097-5.1175007 0-7.07.1880834-.1876085.2937876-.4423455.2937876-.708s-.1057042-.5203915-.2937876-.708z" data-original="#000000" class="active-path" data-old_color="#000000" fill="#FFFFFF"/><path id="Shape" d="m34.949 34.051c-.3923789-.3789722-1.0160848-.3735524-1.4018186.0121814s-.3911536 1.0094397-.0121814 1.4018186c1.9519097 1.9524993 1.9519097 5.1175007 0 7.07-.2599566.2510745-.3642126.6228779-.2726972.9725073.0915155.3496295.3645604.6226744.7141899.7141899.3496294.0915154.7214328-.0127406.9725073-.2726972 1.3129091-1.3127752 2.0505051-3.0933608 2.0505051-4.95s-.737596-3.6372248-2.0505051-4.95z" data-original="#000000" class="active-path" data-old_color="#000000" fill="#FFFFFF"/><path id="Shape" d="m23.636 32.636c.3789722-.3923789.3735524-1.0160848-.0121814-1.4018186s-1.0094397-.3911536-1.4018186-.0121814c-4.2889198 4.2984649-4.2889198 11.2575351 0 15.556.2510745.2599566.6228779.3642126.9725073.2726972.3496295-.0915155.6226744-.3645604.7141899-.7141899.0915154-.3496294-.0127406-.7214328-.2726972-.9725073-3.5092581-3.5170091-3.5092581-9.2109909 0-12.728z" data-original="#000000" class="active-path" data-old_color="#000000" fill="#FFFFFF"/><path id="Shape" d="m36.364 31.222c-.3903819.3904999-.3903819 1.0235001 0 1.414 3.5092581 3.5170091 3.5092581 9.2109909 0 12.728-.2599566.2510745-.3642126.6228779-.2726972.9725073.0915155.3496295.3645604.6226744.7141899.7141899.3496294.0915154.7214328-.0127406.9725073-.2726972 4.2889198-4.2984649 4.2889198-11.2575351 0-15.556-.3904999-.3903819-1.0235001-.3903819-1.414 0z" data-original="#000000" class="active-path" data-old_color="#000000" fill="#FFFFFF"/></g></g></g> </svg>
