<?xml version="1.0"?>
<svg xmlns="http://www.w3.org/2000/svg" viewBox="0 0 64 64" width="512px" height="512px" class=""><g><g id="Socail_network" data-name="Socail network"><path d="M62,27A13.012,13.012,0,0,0,49,14c-.25,0-.5.01-.74.02a17.008,17.008,0,0,0-32.52,0c-.24-.01-.49-.02-.74-.02a13,13,0,0,0,0,26h.7l-3,2H7A5,5,0,0,0,7,52H8v7a3,3,0,0,0,6,0V52.87l7.45,4.96A.967.967,0,0,0,22,58h4a1,1,0,0,0,1-1V50.86a3.983,3.983,0,0,0,0-7.72V40h5v7a5,5,0,0,0,5,5h1v5a.987.987,0,0,0,.62.92A.838.838,0,0,0,39,58a1.007,1.007,0,0,0,.71-.29L45.41,52H53a5,5,0,0,0,5-5V37a5.9,5.9,0,0,0-.06-.59A12.942,12.942,0,0,0,62,27ZM12,59a1,1,0,0,1-2,0V52h2Zm0-9H7a3,3,0,0,1,0-6h5Zm9,5.13-7-4.67V43.54l7-4.67ZM25,56H23V38h2Zm3-9a1.984,1.984,0,0,1-1,1.73V45.27A1.984,1.984,0,0,1,28,47Zm28,0a3.009,3.009,0,0,1-3,3H45a1.033,1.033,0,0,0-.71.29L40,54.59V51a1,1,0,0,0-1-1H37a3.009,3.009,0,0,1-3-3V37a3.009,3.009,0,0,1,3-3H53a3.009,3.009,0,0,1,3,3ZM53,32H37a5,5,0,0,0-5,5v1H27V37a1,1,0,0,0-1-1H22a.967.967,0,0,0-.55.17L18.7,38H15a11,11,0,0,1,0-22,12.118,12.118,0,0,1,1.36.08,1,1,0,0,0,1.09-.75,15.008,15.008,0,0,1,29.1,0,1,1,0,0,0,1.09.75A12.118,12.118,0,0,1,49,16a10.991,10.991,0,0,1,8.2,18.32A4.98,4.98,0,0,0,53,32Z" data-original="#000000" class="active-path" data-old_color="#000000" fill="#FFFFFF"/><path d="M43.5,20a2.5,2.5,0,0,0-2-4H38V14a3.009,3.009,0,0,0-3-3H33a1,1,0,0,0-1,1v2a3.009,3.009,0,0,1-3,3H28V16a1,1,0,0,0-1-1H21a1,1,0,0,0-1,1V30a1,1,0,0,0,1,1h6a1,1,0,0,0,1-1V29h.76l1.79.89A1,1,0,0,0,31,30H41.5a2.5,2.5,0,0,0,2-4,2.5,2.5,0,0,0,0-3,2.5,2.5,0,0,0,0-3ZM26,29H22V17h4Zm15.5-8a.5.5,0,0,1,0,1,1,1,0,0,0,0,2,.5.5,0,0,1,0,1,1,1,0,0,0,0,2,.5.5,0,0,1,0,1H31.24l-1.79-.89A1,1,0,0,0,29,27H28V19h1a5,5,0,0,0,5-5V13h1a1,1,0,0,1,1,1v3a1,1,0,0,0,1,1h4.5a.5.5,0,0,1,0,1,1,1,0,0,0,0,2Z" data-original="#000000" class="active-path" data-old_color="#000000" fill="#FFFFFF"/><path d="M38,37H37a1,1,0,0,0,0,2h1a1,1,0,0,0,0-2Z" data-original="#000000" class="active-path" data-old_color="#000000" fill="#FFFFFF"/><path d="M38,41H37a1,1,0,0,0,0,2h1a1,1,0,0,0,0-2Z" data-original="#000000" class="active-path" data-old_color="#000000" fill="#FFFFFF"/><path d="M38,45H37a1,1,0,0,0,0,2h1a1,1,0,0,0,0-2Z" data-original="#000000" class="active-path" data-old_color="#000000" fill="#FFFFFF"/><path d="M53,37H42a1,1,0,0,0,0,2H53a1,1,0,0,0,0-2Z" data-original="#000000" class="active-path" data-old_color="#000000" fill="#FFFFFF"/><path d="M53,41H42a1,1,0,0,0,0,2H53a1,1,0,0,0,0-2Z" data-original="#000000" class="active-path" data-old_color="#000000" fill="#FFFFFF"/><path d="M53,45H42a1,1,0,0,0,0,2H53a1,1,0,0,0,0-2Z" data-original="#000000" class="active-path" data-old_color="#000000" fill="#FFFFFF"/></g></g> </svg>
